<svg width="108" height="31" fill="none" xmlns="http://www.w3.org/2000/svg"><path d="M0 12.1v2.42h2.3V12.1H0zM10.94 4.25a4.2 4.2 0 00-3.4 1.64h-.07V0H5.56v14.52h1.9V9.54c0-2 1.25-3.43 3.08-3.43 1.72 0 2.73 1.29 2.73 3.02v5.39h1.9V8.79c0-2.76-1.7-4.54-4.23-4.54zM25 4.54h-4.52V1h-1.9v3.53h-1.81v1.85h1.8v5.63c0 1.6.9 2.5 2.53 2.5H25v-1.88h-3.52c-.64 0-1-.36-1-.99V6.4H25V4.54zM38.62 4.27c-1.53 0-2.7.75-3.33 1.94h-.06a3.38 3.38 0 00-3.15-1.94c-1.33 0-2.33.71-2.94 1.7h-.08V4.54h-1.82v9.98h1.9V9.39c0-1.87.99-3.24 2.47-3.28 1.4-.04 2.23.97 2.23 2.48v5.93h1.9V9.23c0-2.23 1.33-3.12 2.48-3.12 1.38 0 2.2.97 2.2 2.48v5.93h1.91V8.39c0-2.42-1.36-4.12-3.71-4.12zM44.92 11.94c0 1.63.92 2.58 2.63 2.58h1.88v-1.86h-1.6c-.65 0-1-.36-1-.99V0h-1.91v11.94zM27.15 18.5h-.08c-.75-1-1.96-1.7-3.56-1.72-2.96-.04-5.07 2.15-5.07 5.23 0 3.11 2.15 5.3 5.05 5.26a4.25 4.25 0 003.58-1.83h.08v1.54h1.89v-9.92h-1.9v1.45zm-3.38 6.92a3.29 3.29 0 01-3.42-3.4c0-1.89 1.33-3.41 3.42-3.41a3.27 3.27 0 013.36 3.4c0 1.87-1.33 3.41-3.36 3.41zM41.52 20.67a4.97 4.97 0 00-5.07-3.89 5.08 5.08 0 00-5.27 5.23 5.1 5.1 0 005.27 5.26 5 5 0 005.07-3.95h-2a3.11 3.11 0 01-3.05 2.12 3.3 3.3 0 01-3.38-3.43c0-1.88 1.33-3.4 3.38-3.4 1.53 0 2.66.9 3.06 2.06h1.99zM51.73 18.5h-.08c-.74-1-1.95-1.7-3.56-1.72-2.95-.04-5.07 2.15-5.07 5.23 0 3.11 2.16 5.3 5.05 5.26a4.25 4.25 0 003.58-1.83h.08v1.54h1.9v-9.92h-1.9v1.45zm-3.38 6.92a3.29 3.29 0 01-3.42-3.4c0-1.89 1.33-3.41 3.42-3.41a3.27 3.27 0 013.36 3.4c0 1.87-1.33 3.41-3.36 3.41zM64.47 18.6h-.08c-.74-1.06-1.99-1.8-3.57-1.82-2.9-.04-5.05 2.15-5.05 5.25s2.1 5.28 5.07 5.24a4.34 4.34 0 003.53-1.73h.1v1.44h1.9V12.55h-1.9v6.06zm-3.37 6.84a3.29 3.29 0 01-3.42-3.4c0-1.89 1.33-3.41 3.42-3.41a3.29 3.29 0 013.35 3.4c0 1.89-1.32 3.41-3.35 3.41zM73.56 16.78a5.06 5.06 0 00-5.15 5.25 5.03 5.03 0 005.2 5.24c2.32 0 4.2-1.27 4.86-3.37h-2c-.43.94-1.5 1.54-2.79 1.54-1.8 0-3.1-1.2-3.24-2.74h8.23c.26-3.31-1.81-5.92-5.1-5.92zm-.04 1.83c1.59 0 2.78.98 3.08 2.4h-6.11a2.99 2.99 0 013.03-2.4zM92.22 16.8c-1.53 0-2.7.74-3.34 1.93h-.06a3.38 3.38 0 00-3.15-1.93c-1.33 0-2.34.7-2.94 1.69h-.08v-1.43h-1.83v9.92h1.91V21.9c0-1.86.99-3.22 2.47-3.26 1.41-.04 2.24.96 2.24 2.46V27h1.9v-5.26c0-2.22 1.33-3.1 2.48-3.1 1.39 0 2.21.96 2.21 2.46V27h1.91v-6.1c0-2.4-1.37-4.09-3.72-4.09zM102.78 25.4l-3.42-8.34h-2.11l4.54 10.87-.02.04c-.32.82-.68 1.12-1.56 1.12h-2.36v1.9h2.36c1.73 0 2.65-.78 3.3-2.46l4.38-11.47h-1.95l-3.16 8.34z" fill="#fff"/></svg>